<?xml version="1.0" standalone="no"?>
<!DOCTYPE svg PUBLIC "-//W3C//DTD SVG 20010904//EN"
 "http://www.w3.org/TR/2001/REC-SVG-20010904/DTD/svg10.dtd">
<svg version="1.0" xmlns="http://www.w3.org/2000/svg"
 width="512.000000pt" height="512.000000pt" viewBox="0 0 512.000000 512.000000"
 preserveAspectRatio="xMidYMid meet">

<g transform="translate(0.000000,512.000000) scale(0.100000,-0.100000)"
fill="#000000" stroke="none">
<path d="M2455 4904 c-304 -33 -568 -153 -776 -351 -432 -413 -523 -1066 -221
-1577 232 -390 646 -626 1102 -626 614 0 1129 421 1255 1028 9 42 19 133 22
202 9 215 -34 416 -132 615 -177 359 -525 621 -915 690 -90 16 -269 26 -335
19z m235 -434 c267 -43 501 -211 624 -450 63 -122 87 -211 93 -356 11 -252
-72 -468 -249 -641 -81 -81 -136 -120 -234 -166 -127 -59 -219 -79 -364 -79
-183 0 -331 45 -481 146 -370 249 -480 760 -247 1145 178 294 521 454 858 401z"/>
<path d="M3745 2339 c-207 -32 -390 -166 -480 -354 -49 -103 -65 -190 -65
-354 l0 -141 -105 0 -105 0 0 -530 0 -530 850 0 850 0 0 530 0 530 -105 0
-105 0 0 135 c0 163 -18 263 -66 360 -122 251 -397 396 -669 354z m173 -435
c49 -20 90 -60 113 -109 15 -32 19 -65 19 -172 l0 -133 -210 0 -210 0 0 135
c0 114 3 142 19 173 53 102 169 148 269 106z"/>
<path d="M2309 2115 c-249 -39 -482 -128 -684 -263 -118 -78 -153 -106 -259
-210 -297 -292 -469 -660 -505 -1077 -6 -66 -11 -123 -11 -127 0 -5 97 -8 215
-8 l215 0 0 43 c0 144 57 363 135 522 201 407 593 668 1068 710 l77 7 0 209 0
209 -82 -1 c-46 -1 -122 -7 -169 -14z"/>
</g>
</svg>
